<?xml version="1.0" encoding="utf-8"?>
<!-- Generator: Adobe Illustrator 23.0.1, SVG Export Plug-In . SVG Version: 6.00 Build 0)  -->
<svg version="1.1" id="Layer_1" xmlns="http://www.w3.org/2000/svg" xmlns:xlink="http://www.w3.org/1999/xlink" x="0px" y="0px"
	 viewBox="0 0 97.54 86.07" style="enable-background:new 0 0 97.54 86.07;" xml:space="preserve">
<style type="text/css">
	.st0{fill:#FFFFFF;}
</style>
<g>
	<g>
		<path class="st0" d="M81.42,46.43h-65.3c-1.88,0-3.4-1.52-3.4-3.4c0-1.88,1.52-3.4,3.4-3.4h65.3c1.88,0,3.4,1.52,3.4,3.4
			C84.82,44.91,83.3,46.43,81.42,46.43z"/>
	</g>
	<g>
		<path class="st0" d="M81.42,72.04H47.26c-1.88,0-3.4-1.52-3.4-3.4s1.52-3.4,3.4-3.4h34.16c1.88,0,3.4,1.52,3.4,3.4
			S83.3,72.04,81.42,72.04z"/>
	</g>
	<g>
		<path class="st0" d="M50.28,20.81H16.12c-1.88,0-3.4-1.52-3.4-3.4s1.52-3.4,3.4-3.4h34.16c1.88,0,3.4,1.52,3.4,3.4
			S52.15,20.81,50.28,20.81z"/>
	</g>
</g>
</svg>
