<?xml version="1.0" encoding="utf-8"?>
<!-- Generator: Adobe Illustrator 23.0.1, SVG Export Plug-In . SVG Version: 6.00 Build 0)  -->
<svg version="1.1" id="Layer_1" xmlns="http://www.w3.org/2000/svg" xmlns:xlink="http://www.w3.org/1999/xlink" x="0px" y="0px"
	 viewBox="0 0 203.33 168" style="enable-background:new 0 0 203.33 168;" xml:space="preserve">
<style type="text/css">
	.st0{fill:#C9093D;}
</style>
<path class="st0" d="M163.78,100.1h-41.41c-1.27,0-2.3,1.04-2.3,2.3c0,1.27,1.03,2.3,2.3,2.3h41.41c1.27,0,2.3-1.03,2.3-2.3
	C166.08,101.13,165.04,100.1,163.78,100.1z M69.45,84c10.17,0,18.4-8.24,18.4-18.4s-8.24-18.4-18.4-18.4
	c-10.16,0-18.4,8.24-18.4,18.4S59.3,84,69.45,84z M69.45,51.79c7.62,0,13.8,6.18,13.8,13.8s-6.18,13.8-13.8,13.8
	s-13.8-6.18-13.8-13.8S61.83,51.79,69.45,51.79z M166.08,19.58H37.25c-10.17,0-18.4,8.24-18.4,18.4v92.02
	c0,10.17,8.24,18.4,18.4,18.4h128.83c10.17,0,18.4-8.24,18.4-18.4V37.99C184.48,27.82,176.23,19.58,166.08,19.58z M179.88,130.01
	c0,7.62-6.18,13.8-13.8,13.8H37.25c-7.62,0-13.8-6.18-13.8-13.8V37.99c0-7.62,6.18-13.8,13.8-13.8h128.83
	c7.62,0,13.8,6.18,13.8,13.8V130.01z M163.78,81.7h-41.41c-1.27,0-2.3,1.04-2.3,2.3s1.03,2.3,2.3,2.3h41.41c1.27,0,2.3-1.04,2.3-2.3
	S165.04,81.7,163.78,81.7z M163.78,63.29h-41.41c-1.27,0-2.3,1.04-2.3,2.3c0,1.27,1.03,2.3,2.3,2.3h41.41c1.27,0,2.3-1.04,2.3-2.3
	C166.08,64.33,165.04,63.29,163.78,63.29z M78.66,93.2h-18.4c-12.68,0-23.01,10.32-23.01,23.01v2.3c0,1.27,1.03,2.3,2.3,2.3
	s2.3-1.03,2.3-2.3v-2.3c0-10.15,8.25-18.4,18.4-18.4h18.4c10.15,0,18.4,8.25,18.4,18.4v2.3c0,1.27,1.04,2.3,2.3,2.3
	s2.3-1.04,2.3-2.3v-2.3C101.66,103.53,91.34,93.2,78.66,93.2z"/>
</svg>
