<?xml version="1.0" encoding="utf-8"?>
<!-- Generator: Adobe Illustrator 23.0.1, SVG Export Plug-In . SVG Version: 6.00 Build 0)  -->
<svg version="1.1" id="Layer_1" xmlns="http://www.w3.org/2000/svg" xmlns:xlink="http://www.w3.org/1999/xlink" x="0px" y="0px"
	 viewBox="0 0 203.33 168" style="enable-background:new 0 0 203.33 168;" xml:space="preserve">
<style type="text/css">
	.st0{fill:#C9093D;}
</style>
<path class="st0" d="M75.41,33.39H62.35c-6.87,0-12.45,5.57-12.45,12.42c0,1.27,1.03,2.3,2.3,2.3s2.3-1.03,2.3-2.3
	c0-4.31,3.54-7.82,7.85-7.82h13.07c4.7,0,8.99,3.77,8.99,8.97c0,3.42-1.91,6.48-5,8.03l-11.02,5.69c-0.75,0.4-1.24,1.18-1.24,2.04
	v7.48c0,1.27,1.03,2.3,2.3,2.3c1.27,0,2.3-1.04,2.3-2.3v-6.07l9.74-5.04c4.38-2.32,7.52-6.98,7.52-12.13
	C89.01,39.48,82.91,33.39,75.41,33.39z M69.45,80.72c-1.81,0-3.28,1.47-3.28,3.28c0,1.81,1.47,3.28,3.28,3.28s3.28-1.47,3.28-3.28
	S71.27,80.72,69.45,80.72z M129.27,60.99c0-27.95-26.77-50.61-59.81-50.61S9.64,33.04,9.64,60.99c0,11.38,4.49,21.84,11.98,30.31
	c-4.71,9.42-11.28,16.48-11.38,16.59c-0.6,0.63-0.77,1.57-0.41,2.4c0.36,0.82,1.14,1.31,2.02,1.31c11.03,0,20.35-3.2,27.53-6.91
	c8.86,4.35,19.09,6.91,30.08,6.91C102.5,111.61,129.27,88.95,129.27,60.99z M69.45,107.01c-9.82,0-19.51-2.23-28.04-6.44l-2.1-1.04
	l-2.06,1.06c-6.51,3.37-13.24,5.42-20.06,6.12c2.48-3.18,5.79-7.88,8.54-13.38l1.39-2.78l-2.06-2.33
	C17.99,80,14.24,70.83,14.24,60.99c0-25.37,24.77-46.01,55.21-46.01s55.21,20.64,55.21,46.01S99.91,107.01,69.45,107.01z
	 M182.07,137.98c7.25-8.57,11.62-19.3,11.62-30.97c0-25.75-20.73-46.96-48.14-50.15c-1.41-0.17-2.63,1-2.54,2.42
	c0.07,1.1,0.91,2,2.01,2.13c24.83,2.93,44.07,22.25,44.07,45.6c0,10.19-3.64,19.88-10.53,28.01l-1.99,2.35l1.41,2.74
	c2.66,5.15,5.79,9.6,8.16,12.64c-6.41-0.67-12.76-2.53-18.94-5.57l-2.06-1.01l-2.05,1.04c-7.5,3.55-16.02,5.83-24.62,5.83
	c-21.16,0-39.28-11.89-46.82-28.68c-0.44-0.98-1.51-1.52-2.56-1.29l-0.1,0.02c-1.4,0.32-2.14,1.83-1.55,3.14
	c8.24,18.41,27.97,31.41,51.03,31.41c9.69,0,18.78-2.3,26.7-6.32c7,3.45,15.89,6.32,26.3,6.32c0.88,0,1.66-0.5,2.02-1.32
	c0.35-0.83,0.19-1.77-0.41-2.4C193,153.79,186.76,147.06,182.07,137.98z M122.57,110.08c-0.9,0.9-0.9,2.35,0,3.25l12.55,12.55
	c0.43,0.43,1.02,0.67,1.63,0.67c0.48-0.05,1.23-0.26,1.66-0.71l26.35-27.61c0.88-0.92,0.84-2.38-0.07-3.25
	c-0.92-0.87-2.37-0.84-3.25,0.07l-24.73,25.9l-10.89-10.88C124.93,109.19,123.46,109.19,122.57,110.08z"/>
</svg>
