<?xml version="1.0" encoding="utf-8"?>
<!-- Generator: Adobe Illustrator 23.0.1, SVG Export Plug-In . SVG Version: 6.00 Build 0)  -->
<svg version="1.1" id="Layer_1" xmlns="http://www.w3.org/2000/svg" xmlns:xlink="http://www.w3.org/1999/xlink" x="0px" y="0px"
	 viewBox="0 0 203.33 168" style="enable-background:new 0 0 203.33 168;" xml:space="preserve">
<style type="text/css">
	.st0{fill:#C9093D;}
</style>
<path class="st0" d="M186.78,10.38H62.55c-3.8,0-6.9,3.1-6.9,6.9v18.4c0,1.27,1.04,2.3,2.3,2.3c1.27,0,2.3-1.03,2.3-2.3v-18.4
	c0-1.27,1.03-2.3,2.3-2.3h124.23c1.27,0,2.3,1.03,2.3,2.3v105.83c0,1.27-1.03,2.3-2.3,2.3h-20.71v-18.4c0-2.54-2.06-4.6-4.6-4.6
	h-36.81c-2.54,0-4.6,2.06-4.6,4.6v18.4h-6.9c-1.27,0-2.3,1.03-2.3,2.3s1.04,2.3,2.3,2.3h73.62c3.8,0,6.9-3.1,6.9-6.9V17.28
	C193.69,13.48,190.58,10.38,186.78,10.38z M161.48,125.41h-36.81v-18.4h36.81V125.41z M64.85,111.61h-18.4
	c-20.33,0-36.81,16.48-36.81,36.81c0,5.08,4.12,9.2,9.2,9.2h73.62c5.08,0,9.2-4.12,9.2-9.2C101.66,128.08,85.18,111.61,64.85,111.61
	z M92.46,153.02H18.84c-2.54,0-4.6-2.06-4.6-4.6c0-17.76,14.45-32.21,32.21-32.21h18.4c17.76,0,32.21,14.45,32.21,32.21
	C97.06,150.95,94.99,153.02,92.46,153.02z M55.65,102.4c15.25,0,27.61-12.36,27.61-27.61S70.89,47.19,55.65,47.19
	S28.04,59.3,28.04,74.8S40.15,102.4,55.65,102.4z M55.65,51.79c12.68,0,23.01,10.32,23.01,23.01S68.34,97.8,55.65,97.8
	S32.65,87.48,32.65,74.8S42.97,51.79,55.65,51.79z"/>
</svg>
