<?xml version="1.0" encoding="utf-8"?>
<!-- Generator: Adobe Illustrator 23.0.1, SVG Export Plug-In . SVG Version: 6.00 Build 0)  -->
<svg version="1.1" id="Layer_1" xmlns="http://www.w3.org/2000/svg" xmlns:xlink="http://www.w3.org/1999/xlink" x="0px" y="0px"
	 viewBox="0 0 203.33 168" style="enable-background:new 0 0 203.33 168;" xml:space="preserve">
<style type="text/css">
	.st0{fill:#C9093D;}
</style>
<path class="st0" d="M175.28,84c0-10.86-6.78-20.1-16.38-23.69c4.24-9.31,2.51-20.67-5.19-28.36c-4.95-4.95-11.36-7.41-17.83-7.41
	c-3.58,0-7.17,0.76-10.49,2.27c-3.58-9.59-12.87-16.42-23.74-16.42s-20.04,6.83-23.64,16.43c-3.31-1.52-6.9-2.27-10.5-2.27
	c-6.47,0-13.23,2.46-17.92,7.41c-7.68,7.71-9.32,19.07-5.08,28.35C34.93,63.9,28.05,73.16,28.05,84s6.88,20.1,16.47,23.69
	c-4.24,9.31-2.6,20.71,5.09,28.36c4.93,4.93,11.45,7.42,17.93,7.42c3.58,0,7.15-0.76,10.48-2.28c3.59,9.61,12.79,16.42,23.63,16.42
	s20.14-6.83,23.74-16.43c3.34,1.52,6.92,2.28,10.5,2.28c6.48,0,12.89-2.49,17.82-7.42c7.69-7.69,9.43-19.05,5.19-28.36
	C168.52,104.1,175.28,94.87,175.28,84z M157.3,103.38l-4.62,1.73l2.04,4.49c3.56,7.8,1.87,17.13-4.21,23.2
	c-3.92,3.92-9.1,6.07-14.61,6.07c-2.99,0-5.87-0.63-8.59-1.86l-4.49-2.05l-1.73,4.62c-3.03,8.03-10.82,13.44-19.39,13.44
	s-16.37-5.4-19.38-13.44l-1.73-4.63L76.11,137c-2.7,1.24-5.58,1.86-8.56,1.86c-5.52,0-10.71-2.16-14.64-6.08
	c-6.08-6.05-7.51-15.37-4.2-23.19l2.04-4.49l-4.62-1.73C38.1,100.36,32.7,92.57,32.7,84c0-8.58,5.4-16.37,13.44-19.38l4.62-1.73
	l-2.04-4.74c-3.56-7.56-1.87-16.88,4.2-22.95c3.89-3.91,9.07-6.06,14.6-6.06c2.95,0,5.92,0.64,8.59,1.86l4.49,2.04l1.73-4.62
	c3.03-8.04,10.82-13.44,19.39-13.44s16.37,5.4,19.38,13.44l1.73,4.62l4.49-2.04c2.67-1.22,5.64-1.86,8.58-1.86
	c5.52,0,10.71,2.15,14.62,6.06c6.07,6.07,7.76,15.4,4.21,23.2l-2.04,4.49l4.62,1.73c8.03,3.02,13.44,10.81,13.44,19.38
	S165.33,100.36,157.3,103.38z M83.25,74.8c5.08,0,8.94-4.12,8.94-9.2s-3.85-9.2-8.94-9.2s-9.2,4.12-9.2,9.2S78.16,74.8,83.25,74.8z
	 M83.31,60.99c2.54,0,4.6,2.06,4.6,4.6c0,2.54-2.07,4.6-4.6,4.6c-2.53,0-4.6-2.07-4.6-4.6C78.71,63.06,80.78,60.99,83.31,60.99z
	 M120.06,93.2c-5.08,0-9.2,4.12-9.2,9.2c0,5.08,4.12,9.2,9.2,9.2c5.08,0,9.2-4.12,9.2-9.2C129.26,97.32,125.15,93.2,120.06,93.2z
	 M120.12,107.01c-2.54,0-4.6-2.06-4.6-4.6c0-2.54,2.06-4.6,4.6-4.6c2.54,0,4.6,2.06,4.6,4.6
	C124.72,104.94,122.65,107.01,120.12,107.01z M126.36,59.36c-0.9-0.9-2.35-0.9-3.25,0L77.1,105.37c-0.9,0.9-0.9,2.35,0,3.25
	c0.43,0.46,0.78,0.69,1.61,0.69s1.18-0.22,1.63-0.67l46.01-46.01C127.25,61.71,127.25,60.28,126.36,59.36z"/>
</svg>
