<?xml version="1.0" encoding="utf-8"?>
<!-- Generator: Adobe Illustrator 23.0.1, SVG Export Plug-In . SVG Version: 6.00 Build 0)  -->
<svg version="1.1" id="Layer_1" xmlns="http://www.w3.org/2000/svg" xmlns:xlink="http://www.w3.org/1999/xlink" x="0px" y="0px"
	 viewBox="0 0 203.33 168" style="enable-background:new 0 0 203.33 168;" xml:space="preserve">
<style type="text/css">
	.st0{fill:#C9093D;}
</style>
<path class="st0" d="M156.88,28.79H46.45c-10.17,0-18.4,8.24-18.4,18.4v73.62c0,10.17,8.24,18.4,18.4,18.4h110.43
	c10.17,0,18.4-8.24,18.4-18.4V47.19C175.28,37.03,167.03,28.79,156.88,28.79z M170.68,120.81c0,7.61-6.19,13.8-13.8,13.8H46.45
	c-7.61,0-13.8-6.19-13.8-13.8V60.74l59.38,47.51c2.73,2.16,6.15,3.36,9.63,3.36s6.9-1.2,9.63-3.38l59.38-47.49V120.81z
	 M170.68,54.84l-62.26,49.81c-3.83,3.07-9.69,3.07-13.52,0L32.65,54.84v-7.65c0-7.61,6.19-13.8,13.8-13.8h110.43
	c7.61,0,13.8,6.19,13.8,13.8V54.84z"/>
</svg>
